<svg id="visual" viewBox="0 0 900 600" width="900" height="600" xmlns="http://www.w3.org/2000/svg" xmlns:xlink="http://www.w3.org/1999/xlink" version="1.1"><rect x="0" y="0" width="900" height="600" fill="#E3FF55"></rect><path d="M0 386L21.5 399.8C43 413.7 86 441.3 128.8 452.2C171.7 463 214.3 457 257.2 447.7C300 438.3 343 425.7 385.8 427.2C428.7 428.7 471.3 444.3 514.2 460.7C557 477 600 494 642.8 500C685.7 506 728.3 501 771.2 479.2C814 457.3 857 418.7 878.5 399.3L900 380L900 601L878.5 601C857 601 814 601 771.2 601C728.3 601 685.7 601 642.8 601C600 601 557 601 514.2 601C471.3 601 428.7 601 385.8 601C343 601 300 601 257.2 601C214.3 601 171.7 601 128.8 601C86 601 43 601 21.5 601L0 601Z" fill="#2d1084" stroke-linecap="round" stroke-linejoin="miter"></path></svg>